<?xml version="1.0" encoding="UTF-8" standalone="no"?>
<svg
   xmlns:dc="http://purl.org/dc/elements/1.1/"
   xmlns:cc="http://creativecommons.org/ns#"
   xmlns:rdf="http://www.w3.org/1999/02/22-rdf-syntax-ns#"
   xmlns:svg="http://www.w3.org/2000/svg"
   xmlns="http://www.w3.org/2000/svg"
   height="47.66111"
   width="51.564972"
   viewBox="0 0 51.564972 47.66111"
   version="1.1"
   id="svg4265">
  <defs
     id="defs3829" />
  <metadata
     id="metadata4270">
    <rdf:RDF>
      <cc:Work
         rdf:about="">
        <dc:format>image/svg+xml</dc:format>
        <dc:type
           rdf:resource="http://purl.org/dc/dcmitype/StillImage" />
        <dc:title></dc:title>
      </cc:Work>
    </rdf:RDF>
  </metadata>
  <path
     style="fill:#fe4e28;stroke-width:2.08929992"
     d="M 36.513655,2.5072e-4 40.010099,13.63753 32.564669,15.757961 C 30.08279,11.301275 27.268711,8.0457271 24.119718,5.9909006 20.970726,3.9093519 17.620115,2.8694864 14.071021,2.8694864 c -2.295096,0 -4.108817,0.4668959 -5.443253,1.4009383 -1.30763,0.9340216 -1.96133,1.9739498 -1.96133,3.1214142 0,1.3076302 0.599921,2.5230387 1.800788,3.6439481 1.174208,1.120826 3.336194,2.121058 6.485187,3.001698 l 10.727302,3.121414 c 5.950953,1.707919 10.194322,3.9774 12.729478,6.806104 2.508623,2.855446 3.763665,6.177642 3.763665,9.967005 0,4.830253 -1.921445,8.912118 -5.764378,12.247895 -0.622507,0.533565 -1.270295,1.024927 -1.936489,1.481209 A 25.781962,25.781962 0 0 0 51.564972,23.412696 25.781962,25.781962 0 0 0 36.513655,0 Z M 0.05537,22.29935 A 25.781962,25.781962 0 0 0 0,23.414284 a 25.781962,25.781962 0 0 0 0.332721,4.03799 c 1.763348,4.32903 4.471937,7.958979 8.134062,10.883582 3.736087,2.935466 7.832159,4.402782 12.288845,4.402782 2.001466,0 3.656902,-0.253265 4.964595,-0.760297 1.33431,-0.507052 2.334584,-1.21451 3.001697,-2.121893 0.667176,-0.907341 1.001088,-1.841175 1.001088,-2.80196 0,-1.601156 -0.773939,-2.974954 -2.321839,-4.122607 -1.574476,-1.147506 -4.323597,-2.282351 -8.246467,-3.403052 L 9.82828,26.807307 C 8.413907,26.407018 6.492503,25.659947 4.063901,24.565906 2.483053,23.828174 1.162072,23.072015 0.055161,22.299642 Z"
     id="path5551" />
</svg>
